<svg xmlns="http://www.w3.org/2000/svg" viewBox="0 0 1000 420" font-family="-apple-system,Segoe UI,PingFang SC,sans-serif"><rect width="1000" height="420" fill="#ffffff"/><text x="60" y="26" font-size="16" font-weight="700" fill="#1e3a5f">中煤能源 自产商品煤产量（2020-2025·年报口径）</text><line x1="60" y1="364.0" x2="976" y2="364.0" stroke="#eef1f5"/><text x="52" y="368.0" font-size="11" fill="#9ca3af" text-anchor="end">10504</text><line x1="60" y1="283.5" x2="976" y2="283.5" stroke="#eef1f5"/><text x="52" y="287.5" font-size="11" fill="#9ca3af" text-anchor="end">11441</text><line x1="60" y1="203.0" x2="976" y2="203.0" stroke="#eef1f5"/><text x="52" y="207.0" font-size="11" fill="#9ca3af" text-anchor="end">12378</text><line x1="60" y1="122.5" x2="976" y2="122.5" stroke="#eef1f5"/><text x="52" y="126.5" font-size="11" fill="#9ca3af" text-anchor="end">13316</text><line x1="60" y1="42.0" x2="976" y2="42.0" stroke="#eef1f5"/><text x="52" y="46.0" font-size="11" fill="#9ca3af" text-anchor="end">14253</text><line x1="60" y1="42" x2="60" y2="364" stroke="#d1d5db"/><line x1="60" y1="364" x2="976" y2="364" stroke="#d1d5db"/><path d="M60.0 321.4 L243.2 297.9 L426.4 242.5 L609.6 113.4 L792.8 84.6 L976.0 105.8" fill="none" stroke="#c53030" stroke-width="2.5"/><circle cx="60.0" cy="321.4" r="3.2" fill="#c53030" stroke="#fff" stroke-width="1"/><text x="60.0" y="311.4" font-size="11" fill="#374151" text-anchor="middle">1.10</text><text x="60.0" y="382.0" font-size="11" fill="#6b7280" text-anchor="middle">2020</text><circle cx="243.2" cy="297.9" r="3.2" fill="#c53030" stroke="#fff" stroke-width="1"/><text x="243.2" y="287.9" font-size="11" fill="#374151" text-anchor="middle">1.13</text><text x="243.2" y="382.0" font-size="11" fill="#6b7280" text-anchor="middle">2021</text><circle cx="426.4" cy="242.5" r="3.2" fill="#c53030" stroke="#fff" stroke-width="1"/><text x="426.4" y="232.5" font-size="11" fill="#374151" text-anchor="middle">1.19</text><text x="426.4" y="382.0" font-size="11" fill="#6b7280" text-anchor="middle">2022</text><circle cx="609.6" cy="113.4" r="3.2" fill="#c53030" stroke="#fff" stroke-width="1"/><text x="609.6" y="103.4" font-size="11" fill="#374151" text-anchor="middle">1.34</text><text x="609.6" y="382.0" font-size="11" fill="#6b7280" text-anchor="middle">2023</text><circle cx="792.8" cy="84.6" r="3.2" fill="#c53030" stroke="#fff" stroke-width="1"/><text x="792.8" y="74.6" font-size="11" fill="#374151" text-anchor="middle">1.38</text><text x="792.8" y="382.0" font-size="11" fill="#6b7280" text-anchor="middle">2024</text><circle cx="976.0" cy="105.8" r="3.2" fill="#c53030" stroke="#fff" stroke-width="1"/><text x="976.0" y="95.8" font-size="11" fill="#374151" text-anchor="middle">1.35</text><text x="976.0" y="382.0" font-size="11" fill="#6b7280" text-anchor="middle">2025</text><text x="976" y="410" font-size="10.5" fill="#9ca3af" text-anchor="end">单位:万吨</text></svg>