<svg xmlns="http://www.w3.org/2000/svg" viewBox="0 0 1000 420" font-family="-apple-system,Segoe UI,PingFang SC,sans-serif"><rect width="1000" height="420" fill="#ffffff"/><text x="58" y="26" font-size="16" font-weight="700" fill="#1e3a5f">资产负债率趋势（年度）</text><line x1="58" y1="376.0" x2="976" y2="376.0" stroke="#eef1f5"/><text x="50" y="380.0" font-size="11" fill="#9ca3af" text-anchor="end">44.3</text><line x1="58" y1="292.5" x2="976" y2="292.5" stroke="#eef1f5"/><text x="50" y="296.5" font-size="11" fill="#9ca3af" text-anchor="end">47.6</text><line x1="58" y1="209.0" x2="976" y2="209.0" stroke="#eef1f5"/><text x="50" y="213.0" font-size="11" fill="#9ca3af" text-anchor="end">50.8</text><line x1="58" y1="125.5" x2="976" y2="125.5" stroke="#eef1f5"/><text x="50" y="129.5" font-size="11" fill="#9ca3af" text-anchor="end">54.1</text><line x1="58" y1="42.0" x2="976" y2="42.0" stroke="#eef1f5"/><text x="50" y="46.0" font-size="11" fill="#9ca3af" text-anchor="end">57.3</text><line x1="58" y1="42" x2="58" y2="376" stroke="#d1d5db"/><line x1="58" y1="376" x2="976" y2="376" stroke="#d1d5db"/><text x="58.0" y="394.0" font-size="10.5" fill="#6b7280" text-anchor="middle">2020</text><text x="241.6" y="394.0" font-size="10.5" fill="#6b7280" text-anchor="middle">2021</text><text x="425.2" y="394.0" font-size="10.5" fill="#6b7280" text-anchor="middle">2022</text><text x="608.8" y="394.0" font-size="10.5" fill="#6b7280" text-anchor="middle">2023</text><text x="792.4" y="394.0" font-size="10.5" fill="#6b7280" text-anchor="middle">2024</text><text x="976.0" y="394.0" font-size="10.5" fill="#6b7280" text-anchor="middle">2025</text><path d="M58.0 80.5 L241.6 84.9 L425.2 192.8 L608.8 289.7 L792.4 325.4 L976.0 337.5" fill="none" stroke="#047857" stroke-width="2.5"/><circle cx="58.0" cy="80.5" r="3" fill="#047857" stroke="#fff" stroke-width="1"/><circle cx="241.6" cy="84.9" r="3" fill="#047857" stroke="#fff" stroke-width="1"/><circle cx="425.2" cy="192.8" r="3" fill="#047857" stroke="#fff" stroke-width="1"/><circle cx="608.8" cy="289.7" r="3" fill="#047857" stroke="#fff" stroke-width="1"/><circle cx="792.4" cy="325.4" r="3" fill="#047857" stroke="#fff" stroke-width="1"/><circle cx="976.0" cy="337.5" r="3" fill="#047857" stroke="#fff" stroke-width="1"/><rect x="62" y="398" width="12" height="12" rx="2" fill="#047857"/><text x="79" y="408" font-size="11.5" fill="#374151">资产负债率</text><text x="976" y="408" font-size="10.5" fill="#9ca3af" text-anchor="end">单位:%</text></svg>