<svg xmlns="http://www.w3.org/2000/svg" viewBox="0 0 1000 420" font-family="-apple-system,Segoe UI,PingFang SC,sans-serif"><rect width="1000" height="420" fill="#ffffff"/><text x="58" y="26" font-size="16" font-weight="700" fill="#1e3a5f">每股净资产趋势（季/年）</text><line x1="58" y1="376.0" x2="976" y2="376.0" stroke="#eef1f5"/><text x="50" y="380.0" font-size="11" fill="#9ca3af" text-anchor="end">6.7</text><line x1="58" y1="292.5" x2="976" y2="292.5" stroke="#eef1f5"/><text x="50" y="296.5" font-size="11" fill="#9ca3af" text-anchor="end">8.3</text><line x1="58" y1="209.0" x2="976" y2="209.0" stroke="#eef1f5"/><text x="50" y="213.0" font-size="11" fill="#9ca3af" text-anchor="end">9.9</text><line x1="58" y1="125.5" x2="976" y2="125.5" stroke="#eef1f5"/><text x="50" y="129.5" font-size="11" fill="#9ca3af" text-anchor="end">11.5</text><line x1="58" y1="42.0" x2="976" y2="42.0" stroke="#eef1f5"/><text x="50" y="46.0" font-size="11" fill="#9ca3af" text-anchor="end">13.1</text><line x1="58" y1="42" x2="58" y2="376" stroke="#d1d5db"/><line x1="58" y1="376" x2="976" y2="376" stroke="#d1d5db"/><text x="58.0" y="394.0" font-size="10.5" fill="#6b7280" text-anchor="middle">03</text><text x="134.5" y="394.0" font-size="10.5" fill="#6b7280" text-anchor="middle">09</text><text x="211.0" y="394.0" font-size="10.5" fill="#6b7280" text-anchor="middle">03</text><text x="287.5" y="394.0" font-size="10.5" fill="#6b7280" text-anchor="middle">09</text><text x="364.0" y="394.0" font-size="10.5" fill="#6b7280" text-anchor="middle">03</text><text x="440.5" y="394.0" font-size="10.5" fill="#6b7280" text-anchor="middle">09</text><text x="517.0" y="394.0" font-size="10.5" fill="#6b7280" text-anchor="middle">03</text><text x="593.5" y="394.0" font-size="10.5" fill="#6b7280" text-anchor="middle">09</text><text x="670.0" y="394.0" font-size="10.5" fill="#6b7280" text-anchor="middle">03</text><text x="746.5" y="394.0" font-size="10.5" fill="#6b7280" text-anchor="middle">09</text><text x="823.0" y="394.0" font-size="10.5" fill="#6b7280" text-anchor="middle">03</text><text x="899.5" y="394.0" font-size="10.5" fill="#6b7280" text-anchor="middle">09</text><text x="976.0" y="394.0" font-size="10.5" fill="#6b7280" text-anchor="middle">03</text><path d="M58.0 336.9 L96.2 337.5 L134.5 330.2 L172.8 322.0 L211.0 310.6 L249.2 300.3 L287.5 281.7 L325.8 274.0 L364.0 245.6 L402.2 232.7 L440.5 206.9 L478.8 209.5 L517.0 180.6 L555.2 180.6 L593.5 161.0 L631.8 157.9 L670.0 136.3 L708.2 145.0 L746.5 137.3 L784.8 127.5 L823.0 112.0 L861.2 113.0 L899.5 106.3 L937.8 95.5 L976.0 80.5" fill="none" stroke="#2563eb" stroke-width="2.5"/><circle cx="58.0" cy="336.9" r="3" fill="#2563eb" stroke="#fff" stroke-width="1"/><circle cx="96.2" cy="337.5" r="3" fill="#2563eb" stroke="#fff" stroke-width="1"/><circle cx="134.5" cy="330.2" r="3" fill="#2563eb" stroke="#fff" stroke-width="1"/><circle cx="172.8" cy="322.0" r="3" fill="#2563eb" stroke="#fff" stroke-width="1"/><circle cx="211.0" cy="310.6" r="3" fill="#2563eb" stroke="#fff" stroke-width="1"/><circle cx="249.2" cy="300.3" r="3" fill="#2563eb" stroke="#fff" stroke-width="1"/><circle cx="287.5" cy="281.7" r="3" fill="#2563eb" stroke="#fff" stroke-width="1"/><circle cx="325.8" cy="274.0" r="3" fill="#2563eb" stroke="#fff" stroke-width="1"/><circle cx="364.0" cy="245.6" r="3" fill="#2563eb" stroke="#fff" stroke-width="1"/><circle cx="402.2" cy="232.7" r="3" fill="#2563eb" stroke="#fff" stroke-width="1"/><circle cx="440.5" cy="206.9" r="3" fill="#2563eb" stroke="#fff" stroke-width="1"/><circle cx="478.8" cy="209.5" r="3" fill="#2563eb" stroke="#fff" stroke-width="1"/><circle cx="517.0" cy="180.6" r="3" fill="#2563eb" stroke="#fff" stroke-width="1"/><circle cx="555.2" cy="180.6" r="3" fill="#2563eb" stroke="#fff" stroke-width="1"/><circle cx="593.5" cy="161.0" r="3" fill="#2563eb" stroke="#fff" stroke-width="1"/><circle cx="631.8" cy="157.9" r="3" fill="#2563eb" stroke="#fff" stroke-width="1"/><circle cx="670.0" cy="136.3" r="3" fill="#2563eb" stroke="#fff" stroke-width="1"/><circle cx="708.2" cy="145.0" r="3" fill="#2563eb" stroke="#fff" stroke-width="1"/><circle cx="746.5" cy="137.3" r="3" fill="#2563eb" stroke="#fff" stroke-width="1"/><circle cx="784.8" cy="127.5" r="3" fill="#2563eb" stroke="#fff" stroke-width="1"/><circle cx="823.0" cy="112.0" r="3" fill="#2563eb" stroke="#fff" stroke-width="1"/><circle cx="861.2" cy="113.0" r="3" fill="#2563eb" stroke="#fff" stroke-width="1"/><circle cx="899.5" cy="106.3" r="3" fill="#2563eb" stroke="#fff" stroke-width="1"/><circle cx="937.8" cy="95.5" r="3" fill="#2563eb" stroke="#fff" stroke-width="1"/><circle cx="976.0" cy="80.5" r="3" fill="#2563eb" stroke="#fff" stroke-width="1"/><rect x="62" y="398" width="12" height="12" rx="2" fill="#2563eb"/><text x="79" y="408" font-size="11.5" fill="#374151">每股净资产</text><text x="976" y="408" font-size="10.5" fill="#9ca3af" text-anchor="end">单位:元</text></svg>